<svg width="31" height="13" viewBox="0 0 31 13" fill="none" xmlns="http://www.w3.org/2000/svg">
<path d="M3.432 12.292H2.316C1.164 10.46 0.588 8.616 0.588 6.76C0.588 4.848 1.164 3.004 2.316 1.228H3.432C2.448 2.988 1.956 4.832 1.956 6.76C1.956 8.784 2.448 10.628 3.432 12.292ZM4.35984 12.88V3.652C4.35984 2.964 4.47984 2.416 4.71984 2.008C4.96784 1.592 5.29984 1.292 5.71584 1.108C6.13184 0.915999 6.59584 0.819999 7.10784 0.819999C7.65184 0.819999 8.11184 0.908 8.48784 1.084C8.87184 1.26 9.15984 1.52 9.35184 1.864C9.55184 2.2 9.65184 2.616 9.65184 3.112C9.65184 3.496 9.57184 3.828 9.41184 4.108C9.25984 4.38 9.05584 4.604 8.79984 4.78C8.54384 4.948 8.25984 5.064 7.94784 5.128V5.176C8.35584 5.232 8.71584 5.356 9.02784 5.548C9.33984 5.74 9.58384 6.004 9.75984 6.34C9.94384 6.668 10.0358 7.076 10.0358 7.564C10.0358 8.108 9.91184 8.572 9.66384 8.956C9.42384 9.34 9.09184 9.632 8.66784 9.832C8.25184 10.024 7.77984 10.12 7.25184 10.12C6.96384 10.12 6.71184 10.104 6.49584 10.072C6.28784 10.04 6.09984 9.992 5.93184 9.928C5.76384 9.864 5.59184 9.792 5.41584 9.712V12.88H4.35984ZM7.15584 9.256C7.71584 9.256 8.15984 9.104 8.48784 8.8C8.81584 8.488 8.97984 8.052 8.97984 7.492C8.97984 7.068 8.89584 6.72 8.72784 6.448C8.56784 6.168 8.35184 5.96 8.07984 5.824C7.81584 5.68 7.53184 5.608 7.22784 5.608H6.23184V4.792H7.10784C7.41184 4.792 7.67184 4.724 7.88784 4.588C8.11184 4.452 8.27984 4.26 8.39184 4.012C8.51184 3.764 8.57184 3.48 8.57184 3.16C8.57184 2.664 8.42384 2.296 8.12784 2.056C7.83984 1.816 7.49184 1.696 7.08384 1.696C6.80384 1.696 6.53584 1.752 6.27984 1.864C6.02384 1.968 5.81584 2.164 5.65584 2.452C5.49584 2.74 5.41584 3.156 5.41584 3.7V8.764C5.69584 8.908 5.96384 9.028 6.21984 9.124C6.47584 9.212 6.78784 9.256 7.15584 9.256ZM17.0472 7.252H12.4872C12.4872 7.772 12.6232 8.2 12.8952 8.536C13.1912 8.904 13.6112 9.088 14.1552 9.088C14.9232 9.088 15.4272 8.744 15.6672 8.056H16.9632C16.8192 8.72 16.4872 9.24 15.9672 9.616C15.4552 9.984 14.8512 10.168 14.1552 10.168C13.2032 10.168 12.4592 9.868 11.9232 9.268C11.3872 8.668 11.1192 7.88 11.1192 6.904C11.1192 5.992 11.3872 5.224 11.9232 4.6C12.4912 3.952 13.2232 3.628 14.1192 3.628C14.9912 3.628 15.7072 3.948 16.2672 4.588C16.8032 5.188 17.0712 5.924 17.0712 6.796C17.0712 6.948 17.0632 7.1 17.0472 7.252ZM12.4872 6.352H15.6792C15.6552 5.896 15.4992 5.508 15.2112 5.188C14.9312 4.868 14.5672 4.708 14.1192 4.708C13.6552 4.708 13.2712 4.864 12.9672 5.176C12.6632 5.488 12.5032 5.88 12.4872 6.352ZM17.4632 4.816V3.796H18.4952V1.936H19.8632V3.796H21.0992V4.816H19.8632V8.128C19.8632 8.448 19.8952 8.66 19.9592 8.764C20.0472 8.908 20.2352 8.98 20.5232 8.98C20.7792 8.98 20.9712 8.964 21.0992 8.932V9.988C20.4992 10.036 20.2032 10.06 20.2112 10.06C19.5392 10.06 19.0752 9.924 18.8192 9.652C18.6032 9.428 18.4952 9.036 18.4952 8.476V4.816H17.4632ZM25.9113 7.912V6.892C25.7353 7.004 25.4793 7.088 25.1433 7.144C24.8393 7.184 24.5353 7.224 24.2313 7.264C23.4873 7.392 23.1153 7.736 23.1153 8.296C23.1153 8.568 23.2673 8.776 23.5713 8.92C23.8033 9.032 24.0713 9.088 24.3753 9.088C24.7433 9.088 25.0753 9 25.3713 8.824C25.7313 8.608 25.9113 8.304 25.9113 7.912ZM27.2793 5.428V8.62C27.2793 8.932 27.3873 9.088 27.6033 9.088C27.7313 9.088 27.8433 9.08 27.9393 9.064V10.012C27.6433 10.116 27.3553 10.168 27.0753 10.168C26.4673 10.168 26.1153 9.916 26.0193 9.412C25.5073 9.916 24.7913 10.168 23.8713 10.168C23.2713 10.168 22.7793 10.016 22.3953 9.712C21.9633 9.384 21.7473 8.932 21.7473 8.356C21.7473 7.668 22.0033 7.172 22.5153 6.868C22.8273 6.684 23.3673 6.536 24.1353 6.424C24.9993 6.296 25.4313 6.232 25.4313 6.232C25.8073 6.12 25.9953 5.892 25.9953 5.548C25.9953 4.988 25.5673 4.708 24.7113 4.708C23.8553 4.708 23.3993 5.036 23.3433 5.692H21.9753C22.0553 4.316 22.9953 3.628 24.7953 3.628C25.4753 3.628 26.0393 3.764 26.4873 4.036C27.0153 4.356 27.2793 4.82 27.2793 5.428ZM27.9352 1.228H29.0513C30.2033 3.068 30.7793 4.916 30.7793 6.772C30.7793 8.692 30.2033 10.532 29.0513 12.292H27.9352C28.9193 10.548 29.4113 8.708 29.4113 6.772C29.4113 4.748 28.9193 2.9 27.9352 1.228Z" fill="#02AB6C"/>
</svg>
