<svg width="28" height="28" viewBox="0 0 28 28" fill="none" xmlns="http://www.w3.org/2000/svg">
<path d="M8 12C6.9 12 6 12.9 6 13.9999C6 15.0999 6.9 15.9999 8 15.9999C9.1 15.9999 10 15.0999 10 13.9999C10 12.9 9.1 12 8 12ZM20 12C18.9 12 18 12.9 18 13.9999C18 15.0999 18.9 15.9999 20 15.9999C21.1 15.9999 22 15.0999 22 13.9999C22 12.9 21.1 12 20 12ZM14 12C12.9 12 12 12.9 12 13.9999C12 15.0999 12.9 15.9999 14 15.9999C15.1 15.9999 16 15.0999 16 13.9999C16 12.9 15.1 12 14 12Z" fill="white"/>
<path d="M8 12C6.9 12 6 12.9 6 13.9999C6 15.0999 6.9 15.9999 8 15.9999C9.1 15.9999 10 15.0999 10 13.9999C10 12.9 9.1 12 8 12ZM20 12C18.9 12 18 12.9 18 13.9999C18 15.0999 18.9 15.9999 20 15.9999C21.1 15.9999 22 15.0999 22 13.9999C22 12.9 21.1 12 20 12ZM14 12C12.9 12 12 12.9 12 13.9999C12 15.0999 12.9 15.9999 14 15.9999C15.1 15.9999 16 15.0999 16 13.9999C16 12.9 15.1 12 14 12Z" fill="black" fill-opacity="0.84"/>
</svg>
