<svg width="226" height="196" viewBox="0 0 226 196" fill="none" xmlns="http://www.w3.org/2000/svg">
<g filter="url(#filter0_ddd_34_102)">
<rect x="80" y="72" width="66" height="36" rx="12" fill="white"/>
<rect x="80.5" y="72.5" width="65" height="35" rx="11.5" stroke="#EBEBEB"/>
<path d="M97.3835 97.2661C97.3835 97.6716 97.055 98 96.6495 98H90.7339C90.6569 98 90.5817 97.9872 90.5101 97.9651C90.4899 97.9578 90.4697 97.9505 90.4495 97.9413C90.4294 97.9339 90.411 97.9248 90.3945 97.9156C90.3725 97.9046 90.3523 97.8936 90.3321 97.8789C90.3119 97.8661 90.2917 97.8514 90.2716 97.8349C90.1963 97.7743 90.1358 97.7009 90.0899 97.6147C90.0789 97.5982 90.0697 97.5798 90.0642 97.5596C90.0587 97.5541 90.055 97.5468 90.0532 97.5376C90.044 97.5174 90.0367 97.4954 90.0312 97.4752C90.011 97.4092 90 97.3394 90 97.2661V91.3505C90 90.945 90.3303 90.6165 90.7339 90.6165C91.1394 90.6165 91.4679 90.945 91.4679 91.3505V95.4954L95.6642 91.2972C95.9505 91.011 96.4165 91.011 96.7028 91.2972C96.989 91.5835 96.989 92.0477 96.7028 92.3358L92.5064 96.5321H96.6495C97.055 96.5321 97.3835 96.8605 97.3835 97.2661ZM106 82.7339V88.6495C106 89.055 105.672 89.3835 105.266 89.3835C104.861 89.3835 104.532 89.055 104.532 88.6495V84.5064L100.336 88.7028C100.193 88.8459 100.004 88.9174 99.8165 88.9174C99.6294 88.9174 99.4404 88.8459 99.2972 88.7028C99.011 88.4165 99.011 87.9505 99.2972 87.6642L103.494 83.4679H99.3505C98.945 83.4679 98.6165 83.1394 98.6165 82.7339C98.6165 82.3284 98.945 82 99.3505 82H105.266C105.317 82 105.367 82.0055 105.413 82.0147C105.437 82.0202 105.461 82.0257 105.484 82.033C105.506 82.0404 105.528 82.0477 105.55 82.0587C105.727 82.1321 105.868 82.2734 105.941 82.4495C105.952 82.4716 105.96 82.4936 105.967 82.5156C105.974 82.5394 105.98 82.5633 105.985 82.5872C105.994 82.633 106 82.6826 106 82.7339Z" fill="white"/>
<path d="M97.3835 97.2661C97.3835 97.6716 97.055 98 96.6495 98H90.7339C90.6569 98 90.5817 97.9872 90.5101 97.9651C90.4899 97.9578 90.4697 97.9505 90.4495 97.9413C90.4294 97.9339 90.411 97.9248 90.3945 97.9156C90.3725 97.9046 90.3523 97.8936 90.3321 97.8789C90.3119 97.8661 90.2917 97.8514 90.2716 97.8349C90.1963 97.7743 90.1358 97.7009 90.0899 97.6147C90.0789 97.5982 90.0697 97.5798 90.0642 97.5596C90.0587 97.5541 90.055 97.5468 90.0532 97.5376C90.044 97.5174 90.0367 97.4954 90.0312 97.4752C90.011 97.4092 90 97.3394 90 97.2661V91.3505C90 90.945 90.3303 90.6165 90.7339 90.6165C91.1394 90.6165 91.4679 90.945 91.4679 91.3505V95.4954L95.6642 91.2972C95.9505 91.011 96.4165 91.011 96.7028 91.2972C96.989 91.5835 96.989 92.0477 96.7028 92.3358L92.5064 96.5321H96.6495C97.055 96.5321 97.3835 96.8605 97.3835 97.2661ZM106 82.7339V88.6495C106 89.055 105.672 89.3835 105.266 89.3835C104.861 89.3835 104.532 89.055 104.532 88.6495V84.5064L100.336 88.7028C100.193 88.8459 100.004 88.9174 99.8165 88.9174C99.6294 88.9174 99.4404 88.8459 99.2972 88.7028C99.011 88.4165 99.011 87.9505 99.2972 87.6642L103.494 83.4679H99.3505C98.945 83.4679 98.6165 83.1394 98.6165 82.7339C98.6165 82.3284 98.945 82 99.3505 82H105.266C105.317 82 105.367 82.0055 105.413 82.0147C105.437 82.0202 105.461 82.0257 105.484 82.033C105.506 82.0404 105.528 82.0477 105.55 82.0587C105.727 82.1321 105.868 82.2734 105.941 82.4495C105.952 82.4716 105.96 82.4936 105.967 82.5156C105.974 82.5394 105.98 82.5633 105.985 82.5872C105.994 82.633 106 82.6826 106 82.7339Z" fill="black" fill-opacity="0.84"/>
<path d="M122 88C120.9 88 120 88.9 120 89.9999C120 91.0999 120.9 91.9999 122 91.9999C123.1 91.9999 124 91.0999 124 89.9999C124 88.9 123.1 88 122 88ZM134 88C132.9 88 132 88.9 132 89.9999C132 91.0999 132.9 91.9999 134 91.9999C135.1 91.9999 136 91.0999 136 89.9999C136 88.9 135.1 88 134 88ZM128 88C126.9 88 126 88.9 126 89.9999C126 91.0999 126.9 91.9999 128 91.9999C129.1 91.9999 130 91.0999 130 89.9999C130 88.9 129.1 88 128 88Z" fill="white"/>
<path d="M122 88C120.9 88 120 88.9 120 89.9999C120 91.0999 120.9 91.9999 122 91.9999C123.1 91.9999 124 91.0999 124 89.9999C124 88.9 123.1 88 122 88ZM134 88C132.9 88 132 88.9 132 89.9999C132 91.0999 132.9 91.9999 134 91.9999C135.1 91.9999 136 91.0999 136 89.9999C136 88.9 135.1 88 134 88ZM128 88C126.9 88 126 88.9 126 89.9999C126 91.0999 126.9 91.9999 128 91.9999C129.1 91.9999 130 91.0999 130 89.9999C130 88.9 129.1 88 128 88Z" fill="black" fill-opacity="0.84"/>
</g>
<defs>
<filter id="filter0_ddd_34_102" x="0" y="0" width="226" height="196" filterUnits="userSpaceOnUse" color-interpolation-filters="sRGB">
<feFlood flood-opacity="0" result="BackgroundImageFix"/>
<feColorMatrix in="SourceAlpha" type="matrix" values="0 0 0 0 0 0 0 0 0 0 0 0 0 0 0 0 0 0 127 0" result="hardAlpha"/>
<feOffset dy="0.5"/>
<feGaussianBlur stdDeviation="2"/>
<feColorMatrix type="matrix" values="0 0 0 0 0 0 0 0 0 0 0 0 0 0 0 0 0 0 0.02 0"/>
<feBlend mode="normal" in2="BackgroundImageFix" result="effect1_dropShadow_34_102"/>
<feColorMatrix in="SourceAlpha" type="matrix" values="0 0 0 0 0 0 0 0 0 0 0 0 0 0 0 0 0 0 127 0" result="hardAlpha"/>
<feOffset dy="2"/>
<feGaussianBlur stdDeviation="8"/>
<feColorMatrix type="matrix" values="0 0 0 0 0 0 0 0 0 0 0 0 0 0 0 0 0 0 0.02 0"/>
<feBlend mode="normal" in2="effect1_dropShadow_34_102" result="effect2_dropShadow_34_102"/>
<feColorMatrix in="SourceAlpha" type="matrix" values="0 0 0 0 0 0 0 0 0 0 0 0 0 0 0 0 0 0 127 0" result="hardAlpha"/>
<feOffset dy="8"/>
<feGaussianBlur stdDeviation="40"/>
<feColorMatrix type="matrix" values="0 0 0 0 0 0 0 0 0 0 0 0 0 0 0 0 0 0 0.04 0"/>
<feBlend mode="normal" in2="effect2_dropShadow_34_102" result="effect3_dropShadow_34_102"/>
<feBlend mode="normal" in="SourceGraphic" in2="effect3_dropShadow_34_102" result="shape"/>
</filter>
</defs>
</svg>
