<svg width="16" height="16" viewBox="0 0 16 16" fill="none" xmlns="http://www.w3.org/2000/svg">
<path d="M7.38349 15.2661C7.38349 15.6716 7.05505 16 6.64954 16H0.733945C0.656881 16 0.581651 15.9872 0.510091 15.9651C0.489908 15.9578 0.469724 15.9505 0.449541 15.9413C0.429357 15.9339 0.411009 15.9248 0.394495 15.9156C0.372477 15.9046 0.352293 15.8936 0.33211 15.8789C0.311926 15.8661 0.291743 15.8514 0.27156 15.8349C0.19633 15.7743 0.135779 15.7009 0.0899079 15.6147C0.0788987 15.5982 0.0697245 15.5798 0.0642199 15.5596C0.0587153 15.5541 0.0550453 15.5468 0.0532105 15.5376C0.0440362 15.5174 0.0366969 15.4954 0.0311923 15.4752C0.0110088 15.4092 0 15.3394 0 15.2661V9.35046C0 8.94495 0.330275 8.61651 0.733945 8.61651C1.13945 8.61651 1.46789 8.94495 1.46789 9.35046V13.4954L5.66422 9.29725C5.95046 9.01101 6.41651 9.01101 6.70275 9.29725C6.98899 9.58348 6.98899 10.0477 6.70275 10.3358L2.50642 14.5321H6.64954C7.05505 14.5321 7.38349 14.8605 7.38349 15.2661ZM16 0.733945V6.64954C16 7.05505 15.6716 7.38349 15.2661 7.38349C14.8605 7.38349 14.5321 7.05505 14.5321 6.64954V2.50642L10.3358 6.70275C10.1927 6.84587 10.0037 6.91743 9.81651 6.91743C9.62936 6.91743 9.44037 6.84587 9.29725 6.70275C9.01101 6.41651 9.01101 5.95046 9.29725 5.66422L13.4936 1.46789H9.35046C8.94495 1.46789 8.61651 1.13945 8.61651 0.733945C8.61651 0.32844 8.94495 0 9.35046 0H15.2661C15.3174 0 15.367 0.00550422 15.4128 0.0146785C15.4367 0.0201831 15.4605 0.0256881 15.4844 0.0330276C15.5064 0.040367 15.5284 0.0477064 15.5505 0.0587155C15.7266 0.13211 15.8679 0.273394 15.9413 0.449541C15.9523 0.471559 15.9596 0.493577 15.967 0.515596C15.9743 0.539449 15.9798 0.563302 15.9853 0.587155C15.9945 0.633027 16 0.682569 16 0.733945Z" fill="white"/>
<path d="M7.38349 15.2661C7.38349 15.6716 7.05505 16 6.64954 16H0.733945C0.656881 16 0.581651 15.9872 0.510091 15.9651C0.489908 15.9578 0.469724 15.9505 0.449541 15.9413C0.429357 15.9339 0.411009 15.9248 0.394495 15.9156C0.372477 15.9046 0.352293 15.8936 0.33211 15.8789C0.311926 15.8661 0.291743 15.8514 0.27156 15.8349C0.19633 15.7743 0.135779 15.7009 0.0899079 15.6147C0.0788987 15.5982 0.0697245 15.5798 0.0642199 15.5596C0.0587153 15.5541 0.0550453 15.5468 0.0532105 15.5376C0.0440362 15.5174 0.0366969 15.4954 0.0311923 15.4752C0.0110088 15.4092 0 15.3394 0 15.2661V9.35046C0 8.94495 0.330275 8.61651 0.733945 8.61651C1.13945 8.61651 1.46789 8.94495 1.46789 9.35046V13.4954L5.66422 9.29725C5.95046 9.01101 6.41651 9.01101 6.70275 9.29725C6.98899 9.58348 6.98899 10.0477 6.70275 10.3358L2.50642 14.5321H6.64954C7.05505 14.5321 7.38349 14.8605 7.38349 15.2661ZM16 0.733945V6.64954C16 7.05505 15.6716 7.38349 15.2661 7.38349C14.8605 7.38349 14.5321 7.05505 14.5321 6.64954V2.50642L10.3358 6.70275C10.1927 6.84587 10.0037 6.91743 9.81651 6.91743C9.62936 6.91743 9.44037 6.84587 9.29725 6.70275C9.01101 6.41651 9.01101 5.95046 9.29725 5.66422L13.4936 1.46789H9.35046C8.94495 1.46789 8.61651 1.13945 8.61651 0.733945C8.61651 0.32844 8.94495 0 9.35046 0H15.2661C15.3174 0 15.367 0.00550422 15.4128 0.0146785C15.4367 0.0201831 15.4605 0.0256881 15.4844 0.0330276C15.5064 0.040367 15.5284 0.0477064 15.5505 0.0587155C15.7266 0.13211 15.8679 0.273394 15.9413 0.449541C15.9523 0.471559 15.9596 0.493577 15.967 0.515596C15.9743 0.539449 15.9798 0.563302 15.9853 0.587155C15.9945 0.633027 16 0.682569 16 0.733945Z" fill="black" fill-opacity="0.84"/>
</svg>
