<svg width="238" height="48" viewBox="0 0 238 48" fill="none" xmlns="http://www.w3.org/2000/svg">
<rect width="238" height="48" fill="#FAFBFC"/>
<rect width="238" height="48" fill="#02AB6C"/>
<path d="M18.912 20.656V23.488H21.108C21.508 23.488 21.844 23.388 22.116 23.188C22.444 22.94 22.608 22.568 22.608 22.072C22.608 21.128 22.116 20.656 21.132 20.656H18.912ZM17.412 28V19.432H21.192C22.28 19.432 23.072 19.74 23.568 20.356C23.928 20.804 24.108 21.38 24.108 22.084C24.108 22.78 23.928 23.348 23.568 23.788C23.072 24.404 22.28 24.712 21.192 24.712H18.912V28H17.412ZM29.0639 19.228C30.3119 19.228 31.3159 19.668 32.0759 20.548C32.8039 21.396 33.1679 22.452 33.1679 23.716C33.1679 24.98 32.8039 26.032 32.0759 26.872C31.3159 27.76 30.3119 28.204 29.0639 28.204C27.8159 28.204 26.8119 27.76 26.0519 26.872C25.3239 26.032 24.9599 24.98 24.9599 23.716C24.9599 22.452 25.3239 21.396 26.0519 20.548C26.8119 19.668 27.8159 19.228 29.0639 19.228ZM29.0639 20.452C28.2079 20.452 27.5439 20.792 27.0719 21.472C26.6639 22.064 26.4599 22.812 26.4599 23.716C26.4599 24.62 26.6639 25.368 27.0719 25.96C27.5439 26.64 28.2079 26.98 29.0639 26.98C29.9199 26.98 30.5839 26.64 31.0559 25.96C31.4639 25.368 31.6679 24.62 31.6679 23.716C31.6679 22.812 31.4639 22.064 31.0559 21.472C30.5839 20.792 29.9199 20.452 29.0639 20.452ZM35.9491 28L33.6931 19.432H35.2171L36.7651 25.984H36.7891L38.5171 19.432H40.0531L41.7331 25.984H41.7571L43.3531 19.432H44.8771L42.5131 28H40.9891L39.2731 21.448H39.2491L37.4971 28H35.9491ZM45.8651 28V19.432H52.0331V20.728H47.3651V22.972H51.6851V24.196H47.3651V26.704H52.1171V28H45.8651ZM54.9237 20.656V23.332H57.3837C58.3597 23.332 58.8477 22.876 58.8477 21.964C58.8477 21.092 58.3517 20.656 57.3597 20.656H54.9237ZM53.4237 28V19.432H57.5157C58.4437 19.432 59.1477 19.636 59.6277 20.044C60.1077 20.444 60.3477 21.012 60.3477 21.748C60.3477 22.86 59.8757 23.58 58.9317 23.908V23.932C59.7797 24.052 60.2037 24.656 60.2037 25.744C60.2037 26.912 60.3597 27.664 60.6717 28H59.0637C58.9117 27.752 58.8357 27.332 58.8357 26.74C58.8357 25.916 58.7237 25.34 58.4997 25.012C58.2517 24.652 57.7957 24.472 57.1317 24.472H54.9237V28H53.4237ZM61.8729 28V19.432H68.0409V20.728H63.3729V22.972H67.6929V24.196H63.3729V26.704H68.1249V28H61.8729ZM70.9315 20.656V26.776H72.4075C73.4955 26.776 74.2675 26.48 74.7235 25.888C75.0835 25.408 75.2635 24.684 75.2635 23.716C75.2635 22.748 75.0835 22.024 74.7235 21.544C74.2675 20.952 73.4955 20.656 72.4075 20.656H70.9315ZM69.4315 28V19.432H72.9835C74.2395 19.432 75.1995 19.852 75.8635 20.692C76.4635 21.444 76.7635 22.452 76.7635 23.716C76.7635 24.98 76.4635 25.988 75.8635 26.74C75.1995 27.58 74.2395 28 72.9835 28H69.4315ZM82.9315 24.1V26.776H85.5835C86.5435 26.776 87.0235 26.324 87.0235 25.42C87.0235 24.54 86.5435 24.1 85.5835 24.1H82.9315ZM81.4315 28V19.432H85.5955C86.3875 19.432 87.0075 19.612 87.4555 19.972C87.9115 20.332 88.1395 20.86 88.1395 21.556C88.1395 22.42 87.7315 23.028 86.9155 23.38V23.404C87.9875 23.636 88.5235 24.372 88.5235 25.612C88.5235 26.324 88.2755 26.888 87.7795 27.304C87.2275 27.768 86.4235 28 85.3675 28H81.4315ZM82.9315 20.656V23.02H85.3795C85.7475 23.02 86.0475 22.916 86.2795 22.708C86.5195 22.5 86.6395 22.208 86.6395 21.832C86.6395 21.048 86.2195 20.656 85.3795 20.656H82.9315ZM92.1128 28V24.64L88.8967 19.432H90.6368L92.9048 23.272L95.1367 19.432H96.8168L93.6128 24.64V28H92.1128Z" fill="white"/>
<path d="M18.912 20.656V23.488H21.108C21.508 23.488 21.844 23.388 22.116 23.188C22.444 22.94 22.608 22.568 22.608 22.072C22.608 21.128 22.116 20.656 21.132 20.656H18.912ZM17.412 28V19.432H21.192C22.28 19.432 23.072 19.74 23.568 20.356C23.928 20.804 24.108 21.38 24.108 22.084C24.108 22.78 23.928 23.348 23.568 23.788C23.072 24.404 22.28 24.712 21.192 24.712H18.912V28H17.412ZM29.0639 19.228C30.3119 19.228 31.3159 19.668 32.0759 20.548C32.8039 21.396 33.1679 22.452 33.1679 23.716C33.1679 24.98 32.8039 26.032 32.0759 26.872C31.3159 27.76 30.3119 28.204 29.0639 28.204C27.8159 28.204 26.8119 27.76 26.0519 26.872C25.3239 26.032 24.9599 24.98 24.9599 23.716C24.9599 22.452 25.3239 21.396 26.0519 20.548C26.8119 19.668 27.8159 19.228 29.0639 19.228ZM29.0639 20.452C28.2079 20.452 27.5439 20.792 27.0719 21.472C26.6639 22.064 26.4599 22.812 26.4599 23.716C26.4599 24.62 26.6639 25.368 27.0719 25.96C27.5439 26.64 28.2079 26.98 29.0639 26.98C29.9199 26.98 30.5839 26.64 31.0559 25.96C31.4639 25.368 31.6679 24.62 31.6679 23.716C31.6679 22.812 31.4639 22.064 31.0559 21.472C30.5839 20.792 29.9199 20.452 29.0639 20.452ZM35.9491 28L33.6931 19.432H35.2171L36.7651 25.984H36.7891L38.5171 19.432H40.0531L41.7331 25.984H41.7571L43.3531 19.432H44.8771L42.5131 28H40.9891L39.2731 21.448H39.2491L37.4971 28H35.9491ZM45.8651 28V19.432H52.0331V20.728H47.3651V22.972H51.6851V24.196H47.3651V26.704H52.1171V28H45.8651ZM54.9237 20.656V23.332H57.3837C58.3597 23.332 58.8477 22.876 58.8477 21.964C58.8477 21.092 58.3517 20.656 57.3597 20.656H54.9237ZM53.4237 28V19.432H57.5157C58.4437 19.432 59.1477 19.636 59.6277 20.044C60.1077 20.444 60.3477 21.012 60.3477 21.748C60.3477 22.86 59.8757 23.58 58.9317 23.908V23.932C59.7797 24.052 60.2037 24.656 60.2037 25.744C60.2037 26.912 60.3597 27.664 60.6717 28H59.0637C58.9117 27.752 58.8357 27.332 58.8357 26.74C58.8357 25.916 58.7237 25.34 58.4997 25.012C58.2517 24.652 57.7957 24.472 57.1317 24.472H54.9237V28H53.4237ZM61.8729 28V19.432H68.0409V20.728H63.3729V22.972H67.6929V24.196H63.3729V26.704H68.1249V28H61.8729ZM70.9315 20.656V26.776H72.4075C73.4955 26.776 74.2675 26.48 74.7235 25.888C75.0835 25.408 75.2635 24.684 75.2635 23.716C75.2635 22.748 75.0835 22.024 74.7235 21.544C74.2675 20.952 73.4955 20.656 72.4075 20.656H70.9315ZM69.4315 28V19.432H72.9835C74.2395 19.432 75.1995 19.852 75.8635 20.692C76.4635 21.444 76.7635 22.452 76.7635 23.716C76.7635 24.98 76.4635 25.988 75.8635 26.74C75.1995 27.58 74.2395 28 72.9835 28H69.4315ZM82.9315 24.1V26.776H85.5835C86.5435 26.776 87.0235 26.324 87.0235 25.42C87.0235 24.54 86.5435 24.1 85.5835 24.1H82.9315ZM81.4315 28V19.432H85.5955C86.3875 19.432 87.0075 19.612 87.4555 19.972C87.9115 20.332 88.1395 20.86 88.1395 21.556C88.1395 22.42 87.7315 23.028 86.9155 23.38V23.404C87.9875 23.636 88.5235 24.372 88.5235 25.612C88.5235 26.324 88.2755 26.888 87.7795 27.304C87.2275 27.768 86.4235 28 85.3675 28H81.4315ZM82.9315 20.656V23.02H85.3795C85.7475 23.02 86.0475 22.916 86.2795 22.708C86.5195 22.5 86.6395 22.208 86.6395 21.832C86.6395 21.048 86.2195 20.656 85.3795 20.656H82.9315ZM92.1128 28V24.64L88.8967 19.432H90.6368L92.9048 23.272L95.1367 19.432H96.8168L93.6128 24.64V28H92.1128Z" fill="white" fill-opacity="0.4"/>
<g clip-path="url(#clip0_34_29)">
<path d="M106 30.8031V11.8083H108.051V28.8093H116.974V30.8031H106ZM124 31.342C119.996 31.342 117.351 28.4321 117.351 24.0135C117.351 19.5679 119.996 16.658 124 16.658C128.029 16.658 130.673 19.5679 130.673 24.0135C130.673 28.4321 128.029 31.342 124 31.342ZM124 29.4829C126.892 29.4829 128.77 27.3275 128.77 24.0135C128.77 20.6995 126.892 18.544 124 18.544C121.108 18.544 119.23 20.6995 119.23 24.0135C119.23 27.3275 121.108 29.4829 124 29.4829ZM139.34 16.658C142.207 16.658 143.962 18.6518 143.962 22.0197V30.8031H142.059V22.2352C142.059 19.9181 140.798 18.4363 138.821 18.4363C136.324 18.4363 134.52 20.3492 134.52 23.1244V30.8031H132.642V17.1969H134.347L134.52 19.2176H134.545C135.608 17.5741 137.165 16.658 139.34 16.658ZM151.716 37C148.775 37 146.032 35.5451 144.82 33.3627L146.279 32.0155C147.267 33.9016 149.393 35.1409 151.667 35.1409C154.756 35.1409 156.808 33.0124 156.808 29.7254V28.2166H156.783C155.795 29.914 153.817 30.9648 152.062 30.9648C148.38 30.9648 145.834 28.0819 145.834 23.9057C145.834 19.6218 148.38 16.7119 152.062 16.7119C153.867 16.7119 155.795 17.8166 156.808 19.4062H156.833L157.03 17.1969H158.711V29.7254C158.711 34.144 155.918 37 151.716 37ZM152.309 29.1057C155.004 29.1057 156.882 26.8694 156.882 23.9057C156.882 20.8611 155.004 18.544 152.309 18.544C149.591 18.544 147.712 20.7264 147.712 23.9057C147.712 26.9772 149.591 29.1057 152.309 29.1057ZM166.338 31.342C163.223 31.342 160.653 29.5907 160.43 26.6808L162.284 26.2767C162.432 28.1627 164.113 29.4829 166.338 29.4829C168.29 29.4829 169.798 28.486 169.798 27.085C169.798 26.0342 168.883 25.3876 166.782 24.9295L164.805 24.4984C162.21 23.9057 161.098 22.7741 161.098 20.7803C161.122 18.4093 163.05 16.658 165.72 16.658C168.34 16.658 170.292 18.1938 170.762 20.4031L168.958 20.942C168.785 19.514 167.475 18.4632 165.695 18.4632C164.113 18.4632 162.951 19.514 162.927 20.6725C162.927 21.6694 163.668 22.2352 165.398 22.6394L167.425 23.0705C170.366 23.744 171.627 24.8756 171.627 26.8964C171.627 29.456 169.353 31.342 166.338 31.342ZM174.498 14.5565C173.658 14.5565 173.114 13.9637 173.114 13.0477C173.114 12.1585 173.658 11.5658 174.498 11.5658C175.314 11.5658 175.907 12.1585 175.907 13.0477C175.907 13.9637 175.314 14.5565 174.498 14.5565ZM173.534 30.8031V17.1969H175.413V30.8031H173.534ZM183.553 37C180.612 37 177.868 35.5451 176.657 33.3627L178.115 32.0155C179.104 33.9016 181.23 35.1409 183.504 35.1409C186.593 35.1409 188.645 33.0124 188.645 29.7254V28.2166H188.62C187.631 29.914 185.654 30.9648 183.899 30.9648C180.216 30.9648 177.671 28.0819 177.671 23.9057C177.671 19.6218 180.216 16.7119 183.899 16.7119C185.703 16.7119 187.631 17.8166 188.645 19.4062H188.669L188.867 17.1969H190.548V29.7254C190.548 34.144 187.755 37 183.553 37ZM184.146 29.1057C186.84 29.1057 188.719 26.8694 188.719 23.9057C188.719 20.8611 186.84 18.544 184.146 18.544C181.427 18.544 179.549 20.7264 179.549 23.9057C179.549 26.9772 181.427 29.1057 184.146 29.1057ZM193.009 30.8031V11H194.887V19.2176H194.912C195.975 17.5741 197.532 16.658 199.707 16.658C202.574 16.658 204.329 18.6518 204.329 22.0197V30.8031H202.426V22.2352C202.426 19.9181 201.165 18.4363 199.188 18.4363C196.692 18.4363 194.887 20.3492 194.887 23.1244V30.8031H193.009ZM211.625 31.342C209.277 31.342 207.695 29.6176 207.695 27.1389V18.8943H204.952V17.1969H207.695V13.1554L209.574 12.6705V17.1969H215.16V18.8943H209.574V26.9233C209.574 28.4591 210.439 29.5637 211.798 29.5637C213.059 29.5637 214.22 28.5668 214.468 26.8155L216 27.5161C215.654 29.887 213.751 31.342 211.625 31.342Z" fill="white"/>
</g>
<defs>
<clipPath id="clip0_34_29">
<rect width="116" height="25" fill="white" transform="translate(105.5 11.5)"/>
</clipPath>
</defs>
</svg>
